<svg width="16" height="16" viewBox="0 0 16 16" fill="none" xmlns="http://www.w3.org/2000/svg">
<path d="M8.11646 14.4358V5.12668M7.03313 4.56822C7.14838 4.59409 7.26982 4.56239 7.35279 4.47941C7.43577 4.39644 7.46742 4.27495 7.4416 4.15975C7.33817 3.73723 6.95714 2.3224 6.5659 1.93116C6.07846 1.44372 5.28513 1.44169 4.8001 1.92672C4.3151 2.41171 4.31706 3.20504 4.80454 3.69252C5.20219 4.09017 6.61062 4.4648 7.03313 4.56822ZM8.21618 4.15972C8.19032 4.27497 8.22202 4.39641 8.30499 4.47938C8.38796 4.56235 8.50945 4.594 8.62465 4.56819C9.04717 4.46475 10.462 4.08373 10.8532 3.69249C11.3407 3.20505 11.3427 2.41171 10.8577 1.92668C10.3727 1.44169 9.57936 1.44365 9.09189 1.93112C8.69424 2.32877 8.31961 3.73721 8.21618 4.15972ZM2.06555 8.38487H13.9346C14.1917 8.38487 14.4001 8.17647 14.4001 7.91941V5.59214C14.4001 5.33507 14.1917 5.12668 13.9346 5.12668H2.06555C1.80849 5.12668 1.6001 5.33507 1.6001 5.59214V7.91941C1.6001 8.17647 1.80849 8.38487 2.06555 8.38487ZM13.2365 8.38487V13.9703C13.2365 14.2274 13.0281 14.4358 12.771 14.4358H3.22919C2.97212 14.4358 2.76373 14.2274 2.76373 13.9703V8.38487H13.2365Z" stroke="#EE46BC" stroke-width="1.5" stroke-linecap="round" stroke-linejoin="round"/>
</svg>
