<svg width="1344" height="544" viewBox="0 0 1344 544" fill="none" xmlns="http://www.w3.org/2000/svg">
<g opacity="0.96" filter="url(#filter0_f_78_545)">
<path d="M-299.319 290.569C-305.838 328.059 -304.113 363.777 -288.692 400.183C-277.839 426.045 -266.093 450.359 -248.574 471.819C-229.805 494.688 -207.325 513.511 -181.462 527.068C-134.673 552.018 -83.3763 559.633 -31.1142 557.834C12.9847 556.48 56.3713 549.213 98.1233 535.846C125.859 527.107 153.674 517.038 180.022 504.748C207.997 492.021 234.613 477.479 261.012 462.123C290.148 445.598 315.943 424.738 340.271 401.655C343.794 398.531 346.066 393.999 349.966 389.031C344.591 385.241 339.623 381.341 334.467 378.364C316.934 368.241 306.743 351.356 297.365 334.253C292.091 324.333 291.262 311.478 290.76 299.843C289.371 271.882 294.329 244.835 310.464 220.46C319.237 207.648 330.289 196.841 344.386 190.884C372.985 178.862 401.194 180.021 427.82 196.425C446.196 208.066 452.726 225.932 450.012 246.71C446.601 274.65 435.186 300.376 422.115 324.801C413.104 341.601 401.623 357.318 390.28 375.178C402.359 382.839 417.037 387.188 431.766 388.472C495.591 394.037 558.1 388.185 619.998 370.292C698.76 347.008 771.297 311.88 841.792 270.76C855.046 263.285 867.675 255.106 880.304 246.928C891.822 239.482 899.73 229.953 903.375 215.899C907.099 200.517 913.075 185.403 917.315 170.318C919.421 161.907 924.57 158.348 932.377 154.948C965.232 140.914 999.831 133.387 1033.99 124.233C1058.8 117.586 1083.94 112.158 1108.96 106.324C1138.06 99.4003 1167.56 92.3675 1196.65 85.4437C1226.67 78.7086 1256.68 71.9735 1286.7 65.2384C1289.95 64.3666 1293.64 65.1216 1297.12 65.0633C1307.94 64.7791 1318.49 66.7464 1329.58 64.2107C1337.42 62.5469 1346.8 61.7763 1352.18 72.1033C1356.21 80.6149 1349.79 87.5658 1345.29 93.5651C1337.41 104.83 1328.91 115.391 1319.26 124.949C1306.8 137.007 1293.2 148.062 1279.49 158.71C1259.22 174.167 1238.33 188.919 1217.95 203.969C1174.97 235.536 1132.62 267.808 1089.02 298.671C1078.01 306.414 1064 311.041 1051.85 317.782C1026.46 331.997 1001.17 346.619 976.072 360.319C971.112 362.956 965.825 364.372 960.131 365.898C945.272 369.008 936.258 361.397 937.216 345.448C937.883 336.551 939.473 327.843 940.816 316.586C926.778 326.014 915.289 335.195 902.224 341.747C889.565 348.19 884.243 365.745 863.653 362.108C863.218 360.481 859.767 355.739 860.631 352.456C867.95 326.085 876.191 299.902 884.432 273.719C885.107 271.359 885.266 268.701 885.694 263.791C858.998 279.662 834.742 294.88 809.644 308.579C766.222 331.983 723.316 355.685 676.822 372.502C641.388 385.048 605.846 397.187 569.402 404.337C518.099 414.596 466.084 418.944 414.322 407.967C400.487 405.136 386.324 401.084 371.348 397.251C365.713 402.248 359.264 407.463 353.955 413.68C316.52 452.917 271.45 481.557 223.852 505.644C196.204 519.591 167.496 531.207 138.897 543.229C97.312 560.474 53.6277 568.256 10.35 575.929C-11.75 579.671 -34.3152 580.051 -57.2072 579.211C-80.506 578.479 -102.912 576.2 -125.267 570.857C-167.507 561.252 -205.718 542.285 -238.46 514.443C-262.08 494.618 -281.91 469.418 -294.774 439.301C-301.356 424.5 -309.157 410.026 -314.518 394.898C-322.981 371.448 -323.39 347.147 -322.47 322.926C-322.209 314.138 -320.728 305.023 -319.654 296.017C-312.74 294.165 -305.826 292.312 -299.319 290.569ZM369.632 368.069C396.174 336.983 416.826 301.808 428.414 262.087C431.601 251.208 429.661 239.086 428.643 227.154C427.982 218.177 422.36 211.837 413.732 208.918C375.391 194.346 340.008 203.826 320.99 245.102C313.605 261.465 312.975 278.634 312.751 295.694C312.522 330.628 334.334 358.348 369.632 368.069ZM960.913 339.534C1073.4 281.06 1170.79 205.273 1271.72 128.098C1266.22 128.702 1263.56 128.542 1261.93 128.978C1226.89 146.215 1191.51 162.232 1157.41 181.394C1120.99 201.617 1085.51 223.764 1051.69 247.211C1026.35 264.897 998.703 278.844 972.74 295.827C971.223 296.669 968.971 296.401 967.236 296.43C965.436 310.861 963.2 323.665 960.913 339.534ZM921.875 241.019C918.972 262.721 906.577 284.786 904.088 312.914C977.64 265.308 1047.86 219.903 1119.6 173.656C1053.28 196.219 988.596 218.347 921.875 241.019ZM1193.65 113.275C1158.05 121.942 1122.56 131.016 1087.36 139.575C1059.49 146.172 1032.02 152.659 1004.04 158.85C990.915 161.93 977.762 163.275 964.748 166.762C948.073 171.23 933.163 177.405 934.247 199.345C934.633 204.037 932.36 208.569 931.336 214.51C1021.46 186.439 1106.71 148.339 1193.65 113.275Z" fill="#2B4212"/>
<path d="M960.911 339.537C963.198 323.668 965.434 310.864 967.452 297.246C969.594 297.108 971.845 297.376 972.957 296.643C998.919 279.66 1026.57 265.714 1051.91 248.027C1086.13 224.471 1121.61 202.324 1157.63 182.211C1191.32 163.158 1227.1 147.031 1262.15 129.794C1263.67 128.952 1265.92 129.22 1271.94 128.915C1170.78 205.276 1073.4 281.063 960.911 339.537Z" fill="#86D733"/>
<path d="M921.879 241.022C988.599 218.349 1053.29 196.222 1119.6 173.658C1048.27 219.797 977.644 265.311 904.092 312.917C906.58 284.788 919.492 263.021 921.879 241.022Z" fill="#86D733"/>
<path d="M1193.65 113.273C1106.71 148.337 1021.45 186.438 931.333 214.508C932.357 208.567 934.63 204.035 934.244 199.344C933.16 177.403 948.07 171.228 964.745 166.761C977.759 163.273 990.912 161.929 1004.04 158.848C1032.02 152.658 1059.59 146.577 1087.36 139.573C1122.55 131.015 1158.04 121.94 1193.65 113.273Z" fill="#86D733"/>
</g>
<defs>
<filter id="filter0_f_78_545" x="-331.712" y="54.3218" width="1694.07" height="534.161" filterUnits="userSpaceOnUse" color-interpolation-filters="sRGB">
<feFlood flood-opacity="0" result="BackgroundImageFix"/>
<feBlend mode="normal" in="SourceGraphic" in2="BackgroundImageFix" result="shape"/>
<feGaussianBlur stdDeviation="4.45" result="effect1_foregroundBlur_78_545"/>
</filter>
</defs>
</svg>
