<svg width="58" height="58" viewBox="0 0 58 58" fill="none" xmlns="http://www.w3.org/2000/svg">
<path d="M52.2006 18.3987C50.7588 18.785 40.6767 22.2863 33.719 25.357C38.4881 19.4298 44.469 10.5888 45.2223 9.30254C46.3889 7.28203 45.6976 4.70205 43.677 3.53551C41.6565 2.36897 39.0766 3.06027 37.91 5.08078C37.1694 6.36364 32.5067 15.9764 29.7581 23.0702C28.9386 15.5092 26.9297 5.02729 26.5434 3.58553C25.9402 1.33437 23.631 0.00118182 21.3799 0.60438C19.1287 1.20758 17.7955 3.51673 18.3987 5.76789C18.785 7.20965 22.2862 17.2917 25.357 24.2495C19.4297 19.4804 10.5888 13.4994 9.30252 12.7461C7.28201 11.5796 4.70202 12.2709 3.53549 14.2914C2.36895 16.3119 3.06025 18.8919 5.08076 20.0584C6.36362 20.7991 15.9764 25.4617 23.0702 28.2103C15.5092 29.0299 5.02727 31.0388 3.58551 31.4251C1.33435 32.0283 0.00116206 34.3374 0.60436 36.5886C1.20756 38.8398 3.51671 40.173 5.76787 39.5698C7.20963 39.1834 17.2917 35.6822 24.2495 32.6115C19.4804 38.5387 13.4994 47.3797 12.7461 48.6659C11.5796 50.6864 12.2709 53.2664 14.2914 54.433C16.3119 55.5995 18.8919 54.9082 20.0584 52.8877C20.7991 51.6048 25.4617 41.992 28.2103 34.8983C29.0299 42.4592 31.0387 52.9412 31.4251 54.3829C32.0283 56.6341 34.3374 57.9673 36.5886 57.3641C38.8397 56.7609 40.1729 54.4518 39.5697 52.2006C39.1834 50.7588 35.6822 40.6768 32.6115 33.719C38.5387 38.4881 47.3797 44.469 48.6659 45.2223C50.6864 46.3889 53.2664 45.6976 54.4329 43.6771C55.5995 41.6566 54.9082 39.0766 52.8877 37.91C51.6048 37.1694 41.992 32.5067 34.8982 29.7581C42.4592 28.9386 52.9412 26.9297 54.3829 26.5434C56.6341 25.9402 57.9673 23.631 57.3641 21.3799C56.7609 19.1287 54.4517 17.7955 52.2006 18.3987Z" fill="#8ED740"/>
</svg>
