<svg width="16" height="16" viewBox="0 0 16 16" fill="none" xmlns="http://www.w3.org/2000/svg">
<path d="M11.3352 2.06529L11.4116 2.21786L11.9881 3.75084C12.0333 3.87156 12.1286 3.96682 12.2493 4.01211L13.7294 4.56738C14.3789 4.81105 14.7279 5.50509 14.5549 6.16175L14.5132 6.29243L13.8246 7.81526C13.7713 7.93265 13.7713 8.06736 13.8246 8.18475L14.4786 9.62396C14.7655 10.2555 14.5216 10.9931 13.9349 11.335L13.7823 11.4114L12.2493 11.9879C12.1286 12.0332 12.0333 12.1284 11.9881 12.2492L11.4328 13.7292C11.1891 14.3787 10.4951 14.7278 9.83842 14.5547L9.70773 14.5131L8.1849 13.8245C8.06751 13.7712 7.9328 13.7712 7.81541 13.8245L6.3762 14.4784C5.74463 14.7654 5.00708 14.5214 4.66513 13.9347L4.58871 13.7822L4.01226 12.2492C3.96697 12.1284 3.87171 12.0332 3.75099 11.9879L2.27092 11.4326C1.62141 11.189 1.27239 10.4949 1.44546 9.83826L1.48711 9.70758L2.17567 8.18475C2.22901 8.06736 2.22901 7.93265 2.17567 7.81526L1.52174 6.37605C1.23477 5.74448 1.47874 5.00693 2.06544 4.66498L2.21801 4.58856L3.75099 4.01211C3.87171 3.96682 3.96697 3.87156 4.01226 3.75084L4.56753 2.27076C4.81121 1.62126 5.50524 1.27224 6.1619 1.44531L6.29259 1.48695L7.81541 2.17552C7.9328 2.22886 8.06751 2.22886 8.1849 2.17552L9.62411 1.52159C10.2557 1.23462 10.9932 1.47858 11.3352 2.06529ZM10.1641 5.70591L6.9784 9.34666L5.81595 8.18421C5.64154 8.0098 5.35877 8.0098 5.18436 8.18421C5.00995 8.35862 5.00995 8.64139 5.18436 8.8158L6.68436 10.3158C6.86704 10.4985 7.16614 10.4885 7.33626 10.2941L10.8363 6.29409C10.9987 6.10847 10.9799 5.82632 10.7942 5.6639C10.6086 5.50148 10.3265 5.52029 10.1641 5.70591Z" fill="#EE46BC"/>
</svg>
