<svg width="1260" height="544" viewBox="0 0 1260 544" fill="none" xmlns="http://www.w3.org/2000/svg">
<g opacity="0.12">
<path d="M630 841.001C944.25 841.001 1199 586.251 1199 272C1199 -42.2495 944.25 -297 630 -297C315.75 -297 61 -42.2495 61 272C61 586.251 315.75 841.001 630 841.001Z" stroke="#8ED740" stroke-width="121" stroke-miterlimit="10"/>
<path d="M630.01 703.994C868.588 703.994 1061.99 510.589 1061.99 272.012C1061.99 33.4337 868.588 -159.973 630.01 -159.973C391.433 -159.973 198.027 33.4337 198.027 272.012C198.027 510.589 391.433 703.994 630.01 703.994Z" stroke="#8ED740" stroke-width="121" stroke-miterlimit="10"/>
<path d="M630.014 566.029C792.394 566.029 924.029 434.395 924.029 272.015C924.029 109.635 792.394 -22.0017 630.014 -22.0017C467.634 -22.0017 335.998 109.635 335.998 272.015C335.998 434.395 467.634 566.029 630.014 566.029Z" stroke="#8ED740" stroke-width="121" stroke-miterlimit="10"/>
</g>
</svg>
