<svg width="16" height="16" viewBox="0 0 16 16" fill="none" xmlns="http://www.w3.org/2000/svg">
<path d="M8.00004 1.3335C5.42004 1.3335 3.33337 3.42016 3.33337 6.00016C3.33337 9.50016 8.00004 14.6668 8.00004 14.6668C8.00004 14.6668 12.6667 9.50016 12.6667 6.00016C12.6667 3.42016 10.58 1.3335 8.00004 1.3335ZM4.66671 6.00016C4.66671 4.16016 6.16004 2.66683 8.00004 2.66683C9.84004 2.66683 11.3334 4.16016 11.3334 6.00016C11.3334 7.92016 9.41337 10.7935 8.00004 12.5868C6.61337 10.8068 4.66671 7.90016 4.66671 6.00016Z" fill="#525252"/>
<path d="M8.00004 7.66683C8.92052 7.66683 9.66671 6.92064 9.66671 6.00016C9.66671 5.07969 8.92052 4.3335 8.00004 4.3335C7.07957 4.3335 6.33337 5.07969 6.33337 6.00016C6.33337 6.92064 7.07957 7.66683 8.00004 7.66683Z" fill="#525252"/>
</svg>
