<svg width="292" height="108" viewBox="0 0 292 108" fill="none" xmlns="http://www.w3.org/2000/svg">
<mask id="path-1-inside-1_28_5415" fill="white">
<path fill-rule="evenodd" clip-rule="evenodd" d="M0 16C0 7.16344 7.16344 0 16 0H276C284.837 0 292 7.16344 292 16V70C288.686 70 286 72.6863 286 76C286 79.3137 288.686 82 292 82V92C292 100.837 284.837 108 276 108H16C7.16345 108 0 100.837 0 92V82C3.31371 82 6 79.3137 6 76C6 72.6863 3.31371 70 0 70V16Z"/>
</mask>
<path fill-rule="evenodd" clip-rule="evenodd" d="M0 16C0 7.16344 7.16344 0 16 0H276C284.837 0 292 7.16344 292 16V70C288.686 70 286 72.6863 286 76C286 79.3137 288.686 82 292 82V92C292 100.837 284.837 108 276 108H16C7.16345 108 0 100.837 0 92V82C3.31371 82 6 79.3137 6 76C6 72.6863 3.31371 70 0 70V16Z" fill="#FEFBE8"/>
<path d="M292 70V71H293V70H292ZM292 82H293V81H292V82ZM0 82V81H-1V82H0ZM0 70H-1V71H0V70ZM16 -1C6.61116 -1 -1 6.61116 -1 16H1C1 7.71573 7.71573 1 16 1V-1ZM276 -1H16V1H276V-1ZM293 16C293 6.61116 285.389 -1 276 -1V1C284.284 1 291 7.71573 291 16H293ZM293 70V16H291V70H293ZM287 76C287 73.2386 289.239 71 292 71V69C288.134 69 285 72.134 285 76H287ZM292 81C289.239 81 287 78.7614 287 76H285C285 79.866 288.134 83 292 83V81ZM293 92V82H291V92H293ZM276 109C285.389 109 293 101.389 293 92H291C291 100.284 284.284 107 276 107V109ZM16 109H276V107H16V109ZM-1 92C-1 101.389 6.61117 109 16 109V107C7.71574 107 1 100.284 1 92H-1ZM-1 82V92H1V82H-1ZM5 76C5 78.7614 2.76142 81 0 81V83C3.86599 83 7 79.866 7 76H5ZM0 71C2.76142 71 5 73.2386 5 76H7C7 72.134 3.86599 69 0 69V71ZM-1 16V70H1V16H-1Z" fill="#FEEE95" mask="url(#path-1-inside-1_28_5415)"/>
</svg>
