<svg width="16" height="16" viewBox="0 0 16 16" fill="none" xmlns="http://www.w3.org/2000/svg">
<path d="M3.00322 0.724902C2.49697 0.921777 2.06885 1.18428 1.64072 1.6124C1.2126 2.0374 0.950098 2.46865 0.753223 2.97178C0.562598 3.45928 0.434473 4.01865 0.396973 4.8374C0.359473 5.65615 0.350098 5.91865 0.350098 8.00615C0.350098 10.0937 0.359473 10.3562 0.396973 11.1749C0.434473 11.9937 0.565723 12.553 0.753223 13.0405C0.950098 13.5468 1.2126 13.9749 1.64072 14.403C2.06885 14.8312 2.49697 15.0937 3.00322 15.2905C3.49072 15.4812 4.0501 15.6093 4.86885 15.6468C5.6876 15.6843 5.9501 15.6937 8.0376 15.6937C10.1251 15.6937 10.3876 15.6843 11.2063 15.6468C12.0251 15.6093 12.5845 15.478 13.072 15.2905C13.5782 15.0937 14.0063 14.8312 14.4345 14.403C14.8626 13.9749 15.1251 13.5468 15.322 13.0405C15.5126 12.553 15.6407 11.9937 15.6782 11.1749C15.7157 10.3562 15.7251 10.0937 15.7251 8.00615C15.7251 5.91865 15.7157 5.65615 15.6782 4.8374C15.6407 4.01865 15.5095 3.45928 15.322 2.97178C15.1251 2.46865 14.8626 2.0374 14.4376 1.6124C14.0095 1.18428 13.5813 0.921777 13.0751 0.724902C12.5876 0.534277 12.0282 0.406152 11.2095 0.368652C10.3907 0.331152 10.1282 0.321777 8.04072 0.321777C5.95322 0.321777 5.69072 0.331152 4.87197 0.368652C4.0501 0.403027 3.49072 0.534277 3.00322 0.724902ZM11.1438 1.7499C11.8938 1.78428 12.3001 1.90928 12.572 2.01553C12.9313 2.15615 13.1876 2.32178 13.4563 2.59053C13.7251 2.85928 13.8907 3.11553 14.0313 3.4749C14.1376 3.74678 14.2626 4.15303 14.297 4.90303C14.3345 5.7124 14.3407 5.95615 14.3407 8.00928C14.3407 10.0624 14.3313 10.3062 14.297 11.1155C14.2626 11.8655 14.1376 12.2718 14.0313 12.5437C13.8907 12.903 13.7251 13.1593 13.4563 13.428C13.1876 13.6968 12.9313 13.8624 12.572 14.003C12.3001 14.1093 11.8938 14.2343 11.1438 14.2687C10.3345 14.3062 10.0907 14.3124 8.0376 14.3124C5.98447 14.3124 5.74072 14.303 4.93135 14.2687C4.18135 14.2343 3.7751 14.1093 3.50322 14.003C3.14385 13.8624 2.8876 13.6968 2.61885 13.428C2.3501 13.1593 2.18447 12.903 2.04385 12.5437C1.9376 12.2718 1.8126 11.8655 1.77822 11.1155C1.74072 10.3062 1.73447 10.0624 1.73447 8.00928C1.73447 5.95615 1.74385 5.7124 1.77822 4.90303C1.8126 4.15303 1.9376 3.74678 2.04385 3.4749C2.18447 3.11553 2.3501 2.85928 2.61885 2.59053C2.8876 2.32178 3.14385 2.15615 3.50322 2.01553C3.7751 1.90928 4.18135 1.78428 4.93135 1.7499C5.74072 1.7124 5.98447 1.70615 8.0376 1.70615C10.0907 1.70615 10.3345 1.7124 11.1438 1.7499Z" fill="#0D121C"/>
<path d="M4.09082 8.00937C4.09082 10.1906 5.85957 11.9563 8.0377 11.9563C10.2158 11.9563 11.9846 10.1875 11.9846 8.00937C11.9846 5.83125 10.2189 4.0625 8.0377 4.0625C5.85645 4.0625 4.09082 5.82812 4.09082 8.00937ZM10.6002 8.00937C10.6002 9.425 9.45332 10.5719 8.0377 10.5719C6.62207 10.5719 5.4752 9.425 5.4752 8.00937C5.4752 6.59375 6.62207 5.44688 8.0377 5.44688C9.45332 5.44688 10.6002 6.59375 10.6002 8.00937Z" fill="#0D121C"/>
<path d="M12.1438 4.82812C12.6529 4.82812 13.0657 4.41539 13.0657 3.90625C13.0657 3.39711 12.6529 2.98438 12.1438 2.98438C11.6347 2.98438 11.2219 3.39711 11.2219 3.90625C11.2219 4.41539 11.6347 4.82812 12.1438 4.82812Z" fill="#0D121C"/>
</svg>
